<?xml version="1.0" encoding="utf-8"?>
<!-- Generator: Adobe Illustrator 27.9.0, SVG Export Plug-In . SVG Version: 6.00 Build 0)  -->
<svg version="1.2" baseProfile="tiny" xmlns="http://www.w3.org/2000/svg" xmlns:xlink="http://www.w3.org/1999/xlink" width="1.09in" 
	height="2.23in" viewBox="0 0 79.3 160.7" overflow="visible" xml:space="preserve">
<g id="silkscreen">
	<path fill="none" stroke="#030303" stroke-width="0.5" stroke-miterlimit="10" d="M65.5,17.7V0.4H14.7v17.3H0.4v142.6h78.5V17.7
		H65.5z M3.9,158.4c-0.8,0-1.5-0.7-1.5-1.5c0-0.8,0.7-1.5,1.5-1.5c0.8,0,1.5,0.7,1.5,1.5C5.4,157.7,4.8,158.4,3.9,158.4z M3.9,151.2
		c-0.8,0-1.5-0.7-1.5-1.5c0-0.8,0.7-1.5,1.5-1.5c0.8,0,1.5,0.7,1.5,1.5C5.4,150.5,4.8,151.2,3.9,151.2z M3.9,144
		c-0.8,0-1.5-0.7-1.5-1.5c0-0.8,0.7-1.5,1.5-1.5c0.8,0,1.5,0.7,1.5,1.5C5.4,143.3,4.8,144,3.9,144z M3.9,136.8
		c-0.8,0-1.5-0.7-1.5-1.5c0-0.8,0.7-1.5,1.5-1.5c0.8,0,1.5,0.7,1.5,1.5C5.4,136.1,4.8,136.8,3.9,136.8z M3.9,129.7
		c-0.8,0-1.5-0.7-1.5-1.5c0-0.8,0.7-1.5,1.5-1.5c0.8,0,1.5,0.7,1.5,1.5C5.4,129.1,4.8,129.7,3.9,129.7z M3.9,122.6
		c-0.8,0-1.5-0.7-1.5-1.5c0-0.8,0.7-1.5,1.5-1.5c0.8,0,1.5,0.7,1.5,1.5C5.4,122,4.8,122.6,3.9,122.6z M3.9,115.4
		c-0.8,0-1.5-0.7-1.5-1.5c0-0.8,0.7-1.5,1.5-1.5c0.8,0,1.5,0.7,1.5,1.5C5.4,114.8,4.8,115.4,3.9,115.4z M3.9,108.4
		c-0.8,0-1.5-0.7-1.5-1.5c0-0.8,0.7-1.5,1.5-1.5c0.8,0,1.5,0.7,1.5,1.5C5.4,107.7,4.8,108.4,3.9,108.4z M3.9,101.3
		c-0.8,0-1.5-0.7-1.5-1.5c0-0.8,0.7-1.5,1.5-1.5c0.8,0,1.5,0.7,1.5,1.5C5.4,100.7,4.8,101.3,3.9,101.3z M3.9,94.2
		c-0.8,0-1.5-0.7-1.5-1.5c0-0.8,0.7-1.5,1.5-1.5c0.8,0,1.5,0.7,1.5,1.5C5.4,93.5,4.8,94.2,3.9,94.2z M3.9,87c-0.8,0-1.5-0.7-1.5-1.5
		c0-0.8,0.7-1.5,1.5-1.5c0.8,0,1.5,0.7,1.5,1.5C5.4,86.4,4.8,87,3.9,87z M3.9,79.9c-0.8,0-1.5-0.7-1.5-1.5c0-0.8,0.7-1.5,1.5-1.5
		c0.8,0,1.5,0.7,1.5,1.5C5.4,79.2,4.8,79.9,3.9,79.9z M3.9,72.7c-0.8,0-1.5-0.7-1.5-1.5s0.7-1.5,1.5-1.5c0.8,0,1.5,0.7,1.5,1.5
		S4.8,72.7,3.9,72.7z M3.9,65.6c-0.8,0-1.5-0.7-1.5-1.5s0.7-1.5,1.5-1.5c0.8,0,1.5,0.7,1.5,1.5S4.8,65.6,3.9,65.6z M3.9,58.6
		c-0.8,0-1.5-0.7-1.5-1.5c0-0.8,0.7-1.5,1.5-1.5c0.8,0,1.5,0.7,1.5,1.5C5.4,57.9,4.8,58.6,3.9,58.6z M3.9,51.3
		c-0.8,0-1.5-0.7-1.5-1.5c0-0.8,0.7-1.5,1.5-1.5c0.8,0,1.5,0.7,1.5,1.5C5.4,50.6,4.8,51.3,3.9,51.3z M3.9,44.2
		c-0.8,0-1.5-0.7-1.5-1.5c0-0.8,0.7-1.5,1.5-1.5c0.8,0,1.5,0.7,1.5,1.5C5.4,43.5,4.8,44.2,3.9,44.2z M3.9,37.1
		c-0.8,0-1.5-0.7-1.5-1.5c0-0.8,0.7-1.5,1.5-1.5c0.8,0,1.5,0.7,1.5,1.5C5.4,36.4,4.8,37.1,3.9,37.1z M3.9,29.9
		c-0.8,0-1.5-0.7-1.5-1.5c0-0.8,0.7-1.5,1.5-1.5c0.8,0,1.5,0.7,1.5,1.5C5.4,29.2,4.8,29.9,3.9,29.9z M3.9,22.8
		c-0.8,0-1.5-0.7-1.5-1.5c0-0.8,0.7-1.5,1.5-1.5c0.8,0,1.5,0.7,1.5,1.5C5.4,22.1,4.8,22.8,3.9,22.8z M75.3,158.3
		c-0.8,0-1.5-0.7-1.5-1.5s0.7-1.5,1.5-1.5c0.8,0,1.5,0.7,1.5,1.5S76.1,158.3,75.3,158.3z M75.3,151.1c-0.8,0-1.5-0.7-1.5-1.5
		s0.7-1.5,1.5-1.5c0.8,0,1.5,0.7,1.5,1.5S76.1,151.1,75.3,151.1z M75.3,143.9c-0.8,0-1.5-0.7-1.5-1.5s0.7-1.5,1.5-1.5
		c0.8,0,1.5,0.7,1.5,1.5S76.1,143.9,75.3,143.9z M75.3,136.7c-0.8,0-1.5-0.7-1.5-1.5s0.7-1.5,1.5-1.5c0.8,0,1.5,0.7,1.5,1.5
		S76.1,136.7,75.3,136.7z M75.3,129.6c-0.8,0-1.5-0.7-1.5-1.5s0.7-1.5,1.5-1.5c0.8,0,1.5,0.7,1.5,1.5S76.1,129.6,75.3,129.6z
		 M75.3,122.6c-0.8,0-1.5-0.7-1.5-1.5c0-0.8,0.7-1.5,1.5-1.5c0.8,0,1.5,0.7,1.5,1.5C76.7,121.9,76.1,122.6,75.3,122.6z M75.3,115.4
		c-0.8,0-1.5-0.7-1.5-1.5c0-0.8,0.7-1.5,1.5-1.5c0.8,0,1.5,0.7,1.5,1.5C76.7,114.7,76.1,115.4,75.3,115.4z M75.3,108.3
		c-0.8,0-1.5-0.7-1.5-1.5s0.7-1.5,1.5-1.5c0.8,0,1.5,0.7,1.5,1.5S76.1,108.3,75.3,108.3z M75.3,101.3c-0.8,0-1.5-0.7-1.5-1.5
		c0-0.8,0.7-1.5,1.5-1.5c0.8,0,1.5,0.7,1.5,1.5C76.7,100.6,76.1,101.3,75.3,101.3z M75.3,94.1c-0.8,0-1.5-0.7-1.5-1.5
		c0-0.8,0.7-1.5,1.5-1.5c0.8,0,1.5,0.7,1.5,1.5C76.7,93.4,76.1,94.1,75.3,94.1z M75.3,86.9c-0.8,0-1.5-0.7-1.5-1.5
		c0-0.8,0.7-1.5,1.5-1.5c0.8,0,1.5,0.7,1.5,1.5C76.7,86.3,76.1,86.9,75.3,86.9z M75.3,79.8c-0.8,0-1.5-0.7-1.5-1.5
		c0-0.8,0.7-1.5,1.5-1.5c0.8,0,1.5,0.7,1.5,1.5C76.7,79.1,76.1,79.8,75.3,79.8z M75.3,72.6c-0.8,0-1.5-0.7-1.5-1.5s0.7-1.5,1.5-1.5
		c0.8,0,1.5,0.7,1.5,1.5S76.1,72.6,75.3,72.6z M75.3,65.5c-0.8,0-1.5-0.7-1.5-1.5s0.7-1.5,1.5-1.5c0.8,0,1.5,0.7,1.5,1.5
		S76.1,65.5,75.3,65.5z M75.3,58.5c-0.8,0-1.5-0.7-1.5-1.5c0-0.8,0.7-1.5,1.5-1.5c0.8,0,1.5,0.7,1.5,1.5
		C76.7,57.8,76.1,58.5,75.3,58.5z M75.3,51.2c-0.8,0-1.5-0.7-1.5-1.5c0-0.8,0.7-1.5,1.5-1.5c0.8,0,1.5,0.7,1.5,1.5
		C76.7,50.5,76.1,51.2,75.3,51.2z M75.3,44.1c-0.8,0-1.5-0.7-1.5-1.5c0-0.8,0.7-1.5,1.5-1.5c0.8,0,1.5,0.7,1.5,1.5
		C76.7,43.5,76.1,44.1,75.3,44.1z M75.3,37c-0.8,0-1.5-0.7-1.5-1.5s0.7-1.5,1.5-1.5c0.8,0,1.5,0.7,1.5,1.5S76.1,37,75.3,37z
		 M75.3,29.8c-0.8,0-1.5-0.7-1.5-1.5c0-0.8,0.7-1.5,1.5-1.5c0.8,0,1.5,0.7,1.5,1.5C76.7,29.1,76.1,29.8,75.3,29.8z M75.3,22.7
		c-0.8,0-1.5-0.7-1.5-1.5c0-0.8,0.7-1.5,1.5-1.5c0.8,0,1.5,0.7,1.5,1.5C76.7,22.1,76.1,22.7,75.3,22.7z"/>
</g>
<g id="Layer_1">
	<g id="copper0">
		<g id="copper1">
			
				<path id="connector40pad_00000129910102323050285090000013612764291669631131_" fill="#DEB554" stroke="#DEB554" stroke-width="0.25" stroke-miterlimit="10" d="
				M75.3,23c-1,0-1.8-0.8-1.8-1.8c0-1,0.8-1.8,1.8-1.8c1,0,1.8,0.8,1.8,1.8C77.1,22.2,76.3,23,75.3,23z M75.3,20.1
				c-0.6,0-1.1,0.5-1.1,1.1c0,0.6,0.5,1.1,1.1,1.1c0.6,0,1.1-0.5,1.1-1.1C76.4,20.6,75.9,20.1,75.3,20.1z"/>
			
				<path id="connector39pad_00000003816370248263246380000017403186325278270358_" fill="#DEB554" stroke="#DEB554" stroke-width="0.25" stroke-miterlimit="10" d="
				M75.3,30.1c-1,0-1.8-0.8-1.8-1.8c0-1,0.8-1.8,1.8-1.8c1,0,1.8,0.8,1.8,1.8C77.1,29.3,76.3,30.1,75.3,30.1z M75.3,27.2
				c-0.6,0-1.1,0.5-1.1,1.1c0,0.6,0.5,1.1,1.1,1.1c0.6,0,1.1-0.5,1.1-1.1C76.4,27.7,75.9,27.2,75.3,27.2z"/>
			
				<path id="connector38pad_00000114035187071763946360000008113757911871812510_" fill="#DEB554" stroke="#DEB554" stroke-width="0.25" stroke-miterlimit="10" d="
				M75.3,37.3c-1,0-1.8-0.8-1.8-1.8c0-1,0.8-1.8,1.8-1.8c1,0,1.8,0.8,1.8,1.8C77.1,36.5,76.3,37.3,75.3,37.3z M75.3,34.4
				c-0.6,0-1.1,0.5-1.1,1.1s0.5,1.1,1.1,1.1c0.6,0,1.1-0.5,1.1-1.1S75.9,34.4,75.3,34.4z"/>
			
				<path id="connector37pad_00000018208787059247071540000007098909074182870440_" fill="#DEB554" stroke="#DEB554" stroke-width="0.25" stroke-miterlimit="10" d="
				M75.3,44.4c-1,0-1.8-0.8-1.8-1.8c0-1,0.8-1.8,1.8-1.8c1,0,1.8,0.8,1.8,1.8C77.1,43.6,76.3,44.4,75.3,44.4z M75.3,41.5
				c-0.6,0-1.1,0.5-1.1,1.1s0.5,1.1,1.1,1.1c0.6,0,1.1-0.5,1.1-1.1S75.9,41.5,75.3,41.5z"/>
			
				<path id="connector36pad_00000117656750783913928160000001571940659746017935_" fill="#DEB554" stroke="#DEB554" stroke-width="0.25" stroke-miterlimit="10" d="
				M75.3,51.5c-1,0-1.8-0.8-1.8-1.8c0-1,0.8-1.8,1.8-1.8c1,0,1.8,0.8,1.8,1.8C77.1,50.7,76.3,51.5,75.3,51.5z M75.3,48.6
				c-0.6,0-1.1,0.5-1.1,1.1c0,0.6,0.5,1.1,1.1,1.1c0.6,0,1.1-0.5,1.1-1.1C76.4,49.1,75.9,48.6,75.3,48.6z"/>
			
				<path id="connector35pad_00000181800642279921023790000011368640092118721695_" fill="#DEB554" stroke="#DEB554" stroke-width="0.25" stroke-miterlimit="10" d="
				M75.3,58.8c-1,0-1.8-0.8-1.8-1.8c0-1,0.8-1.8,1.8-1.8c1,0,1.8,0.8,1.8,1.8C77.1,58,76.3,58.8,75.3,58.8z M75.3,55.9
				c-0.6,0-1.1,0.5-1.1,1.1c0,0.6,0.5,1.1,1.1,1.1c0.6,0,1.1-0.5,1.1-1.1C76.4,56.4,75.9,55.9,75.3,55.9z"/>
			
				<path id="connector34pad_00000036937308036984359820000014635697733913776551_" fill="#DEB554" stroke="#DEB554" stroke-width="0.25" stroke-miterlimit="10" d="
				M75.3,65.8c-1,0-1.8-0.8-1.8-1.8c0-1,0.8-1.8,1.8-1.8c1,0,1.8,0.8,1.8,1.8C77.1,65,76.3,65.8,75.3,65.8z M75.3,62.9
				c-0.6,0-1.1,0.5-1.1,1.1c0,0.6,0.5,1.1,1.1,1.1c0.6,0,1.1-0.5,1.1-1.1C76.4,63.4,75.9,62.9,75.3,62.9z"/>
			
				<path id="connector33pad_00000173857137257814972540000006053988967041238455_" fill="#DEB554" stroke="#DEB554" stroke-width="0.25" stroke-miterlimit="10" d="
				M75.3,73c-1,0-1.8-0.8-1.8-1.8c0-1,0.8-1.8,1.8-1.8c1,0,1.8,0.8,1.8,1.8C77.1,72.2,76.3,73,75.3,73z M75.3,70
				c-0.6,0-1.1,0.5-1.1,1.1c0,0.6,0.5,1.1,1.1,1.1c0.6,0,1.1-0.5,1.1-1.1C76.4,70.5,75.9,70,75.3,70z"/>
			
				<path id="connector32pad_00000088822135919349796680000017509074961959921806_" fill="#DEB554" stroke="#DEB554" stroke-width="0.25" stroke-miterlimit="10" d="
				M75.3,80.1c-1,0-1.8-0.8-1.8-1.8c0-1,0.8-1.8,1.8-1.8c1,0,1.8,0.8,1.8,1.8C77.1,79.3,76.3,80.1,75.3,80.1z M75.3,77.2
				c-0.6,0-1.1,0.5-1.1,1.1c0,0.6,0.5,1.1,1.1,1.1c0.6,0,1.1-0.5,1.1-1.1C76.4,77.7,75.9,77.2,75.3,77.2z"/>
			
				<path id="connector31pad_00000075159034785975873230000011163055588255448988_" fill="#DEB554" stroke="#DEB554" stroke-width="0.25" stroke-miterlimit="10" d="
				M75.3,87.3c-1,0-1.8-0.8-1.8-1.8c0-1,0.8-1.8,1.8-1.8c1,0,1.8,0.8,1.8,1.8C77.1,86.5,76.3,87.3,75.3,87.3z M75.3,84.3
				c-0.6,0-1.1,0.5-1.1,1.1c0,0.6,0.5,1.1,1.1,1.1c0.6,0,1.1-0.5,1.1-1.1C76.4,84.8,75.9,84.3,75.3,84.3z"/>
			
				<path id="connector30pad_00000181803920726044218040000002888569641715040908_" fill="#DEB554" stroke="#DEB554" stroke-width="0.25" stroke-miterlimit="10" d="
				M75.3,94.4c-1,0-1.8-0.8-1.8-1.8c0-1,0.8-1.8,1.8-1.8c1,0,1.8,0.8,1.8,1.8C77.1,93.6,76.3,94.4,75.3,94.4z M75.3,91.5
				c-0.6,0-1.1,0.5-1.1,1.1c0,0.6,0.5,1.1,1.1,1.1c0.6,0,1.1-0.5,1.1-1.1C76.4,92,75.9,91.5,75.3,91.5z"/>
			
				<path id="connector29pad_00000076582716520465923350000008254824620558611861_" fill="#DEB554" stroke="#DEB554" stroke-width="0.25" stroke-miterlimit="10" d="
				M75.3,101.6c-1,0-1.8-0.8-1.8-1.8c0-1,0.8-1.8,1.8-1.8c1,0,1.8,0.8,1.8,1.8C77.1,100.8,76.3,101.6,75.3,101.6z M75.3,98.7
				c-0.6,0-1.1,0.5-1.1,1.1c0,0.6,0.5,1.1,1.1,1.1c0.6,0,1.1-0.5,1.1-1.1C76.4,99.2,75.9,98.7,75.3,98.7z"/>
			
				<path id="connector28pad_00000141441433810617825660000005595902299267531158_" fill="#DEB554" stroke="#DEB554" stroke-width="0.25" stroke-miterlimit="10" d="
				M75.3,108.6c-1,0-1.8-0.8-1.8-1.8c0-1,0.8-1.8,1.8-1.8c1,0,1.8,0.8,1.8,1.8C77.1,107.8,76.3,108.6,75.3,108.6z M75.3,105.7
				c-0.6,0-1.1,0.5-1.1,1.1c0,0.6,0.5,1.1,1.1,1.1c0.6,0,1.1-0.5,1.1-1.1C76.4,106.2,75.9,105.7,75.3,105.7z"/>
			
				<path id="connector27pad_00000131349759449687482450000004350331140584276927_" fill="#DEB554" stroke="#DEB554" stroke-width="0.25" stroke-miterlimit="10" d="
				M75.3,115.7c-1,0-1.8-0.8-1.8-1.8s0.8-1.8,1.8-1.8c1,0,1.8,0.8,1.8,1.8S76.3,115.7,75.3,115.7z M75.3,112.7
				c-0.6,0-1.1,0.5-1.1,1.1s0.5,1.1,1.1,1.1c0.6,0,1.1-0.5,1.1-1.1S75.9,112.7,75.3,112.7z"/>
			
				<path id="connector26pad_00000083785174596614829240000016072245734416390317_" fill="#DEB554" stroke="#DEB554" stroke-width="0.25" stroke-miterlimit="10" d="
				M75.3,122.9c-1,0-1.8-0.8-1.8-1.8c0-1,0.8-1.8,1.8-1.8c1,0,1.8,0.8,1.8,1.8C77.1,122.1,76.3,122.9,75.3,122.9z M75.3,119.9
				c-0.6,0-1.1,0.5-1.1,1.1c0,0.6,0.5,1.1,1.1,1.1c0.6,0,1.1-0.5,1.1-1.1C76.4,120.5,75.9,119.9,75.3,119.9z"/>
			
				<path id="connector25pad_00000128477507493762275650000017768199749420243077_" fill="#DEB554" stroke="#DEB554" stroke-width="0.25" stroke-miterlimit="10" d="
				M75.3,129.9c-1,0-1.8-0.8-1.8-1.8s0.8-1.8,1.8-1.8c1,0,1.8,0.8,1.8,1.8S76.3,129.9,75.3,129.9z M75.3,127c-0.6,0-1.1,0.5-1.1,1.1
				c0,0.6,0.5,1.1,1.1,1.1c0.6,0,1.1-0.5,1.1-1.1C76.4,127.5,75.9,127,75.3,127z"/>
			
				<path id="connector24pad_00000153694839930626673480000014007861129167939976_" fill="#DEB554" stroke="#DEB554" stroke-width="0.25" stroke-miterlimit="10" d="
				M75.3,137c-1,0-1.8-0.8-1.8-1.8s0.8-1.8,1.8-1.8c1,0,1.8,0.8,1.8,1.8S76.3,137,75.3,137z M75.3,134.1c-0.6,0-1.1,0.5-1.1,1.1
				s0.5,1.1,1.1,1.1c0.6,0,1.1-0.5,1.1-1.1S75.9,134.1,75.3,134.1z"/>
			
				<path id="connector23pad_00000109027292799440279580000016709036035882666413_" fill="#DEB554" stroke="#DEB554" stroke-width="0.25" stroke-miterlimit="10" d="
				M75.3,144.2c-1,0-1.8-0.8-1.8-1.8s0.8-1.8,1.8-1.8c1,0,1.8,0.8,1.8,1.8S76.3,144.2,75.3,144.2z M75.3,141.3
				c-0.6,0-1.1,0.5-1.1,1.1c0,0.6,0.5,1.1,1.1,1.1c0.6,0,1.1-0.5,1.1-1.1C76.4,141.8,75.9,141.3,75.3,141.3z"/>
			
				<path id="connector22pad_00000152955607188284934330000008145702708035690903_" fill="#DEB554" stroke="#DEB554" stroke-width="0.25" stroke-miterlimit="10" d="
				M75.3,151.4c-1,0-1.8-0.8-1.8-1.8s0.8-1.8,1.8-1.8c1,0,1.8,0.8,1.8,1.8S76.3,151.4,75.3,151.4z M75.3,148.5
				c-0.6,0-1.1,0.5-1.1,1.1s0.5,1.1,1.1,1.1c0.6,0,1.1-0.5,1.1-1.1S75.9,148.5,75.3,148.5z"/>
			
				<path id="connector21pad_00000029012980705977830140000000114088966784227488_" fill="#DEB554" stroke="#DEB554" stroke-width="0.25" stroke-miterlimit="10" d="
				M75.3,158.6c-1,0-1.8-0.8-1.8-1.8s0.8-1.8,1.8-1.8c1,0,1.8,0.8,1.8,1.8S76.3,158.6,75.3,158.6z M75.3,155.7
				c-0.6,0-1.1,0.5-1.1,1.1s0.5,1.1,1.1,1.1c0.6,0,1.1-0.5,1.1-1.1S75.9,155.7,75.3,155.7z"/>
			
				<path id="connector20pad_00000062881111175442663140000009043355372226994334_" fill="#DEB554" stroke="#DEB554" stroke-width="0.25" stroke-miterlimit="10" d="
				M4,23.1c-1,0-1.8-0.8-1.8-1.8S3,19.6,4,19.6s1.8,0.8,1.8,1.8S4.9,23.1,4,23.1z M4,20.2c-0.6,0-1.1,0.5-1.1,1.1
				c0,0.6,0.5,1.1,1.1,1.1s1.1-0.5,1.1-1.1C5.1,20.7,4.6,20.2,4,20.2z"/>
			
				<path id="connector19pad_00000117665273807968182330000006838148125904674199_" fill="#DEB554" stroke="#DEB554" stroke-width="0.25" stroke-miterlimit="10" d="
				M4,30.2c-1,0-1.8-0.8-1.8-1.8c0-1,0.8-1.8,1.8-1.8s1.8,0.8,1.8,1.8C5.7,29.4,4.9,30.2,4,30.2z M4,27.3c-0.6,0-1.1,0.5-1.1,1.1
				c0,0.6,0.5,1.1,1.1,1.1s1.1-0.5,1.1-1.1C5.1,27.8,4.6,27.3,4,27.3z"/>
			
				<path id="connector18pad_00000134943569490364486970000010098831428266132407_" fill="#DEB554" stroke="#DEB554" stroke-width="0.25" stroke-miterlimit="10" d="
				M4,37.4c-1,0-1.8-0.8-1.8-1.8c0-1,0.8-1.8,1.8-1.8s1.8,0.8,1.8,1.8C5.7,36.6,4.9,37.4,4,37.4z M4,34.5c-0.6,0-1.1,0.5-1.1,1.1
				s0.5,1.1,1.1,1.1s1.1-0.5,1.1-1.1S4.6,34.5,4,34.5z"/>
			
				<path id="connector17pad_00000170978371926011954880000007070627536618936201_" fill="#DEB554" stroke="#DEB554" stroke-width="0.25" stroke-miterlimit="10" d="
				M4,44.5c-1,0-1.8-0.8-1.8-1.8c0-1,0.8-1.8,1.8-1.8s1.8,0.8,1.8,1.8C5.7,43.7,4.9,44.5,4,44.5z M4,41.6c-0.6,0-1.1,0.5-1.1,1.1
				c0,0.6,0.5,1.1,1.1,1.1s1.1-0.5,1.1-1.1C5.1,42.1,4.6,41.6,4,41.6z"/>
			
				<path id="connector16pad_00000021820034497510800240000005384551653137126847_" fill="#DEB554" stroke="#DEB554" stroke-width="0.25" stroke-miterlimit="10" d="
				M4,51.6c-1,0-1.8-0.8-1.8-1.8S3,48,4,48s1.8,0.8,1.8,1.8S4.9,51.6,4,51.6z M4,48.7c-0.6,0-1.1,0.5-1.1,1.1s0.5,1.1,1.1,1.1
				s1.1-0.5,1.1-1.1S4.6,48.7,4,48.7z"/>
			
				<path id="connector15pad_00000026870146638316286420000008594295065056094904_" fill="#DEB554" stroke="#DEB554" stroke-width="0.25" stroke-miterlimit="10" d="
				M4,58.9c-1,0-1.8-0.8-1.8-1.8c0-1,0.8-1.8,1.8-1.8s1.8,0.8,1.8,1.8C5.7,58.1,4.9,58.9,4,58.9z M4,56c-0.6,0-1.1,0.5-1.1,1.1
				c0,0.6,0.5,1.1,1.1,1.1s1.1-0.5,1.1-1.1C5.1,56.5,4.6,56,4,56z"/>
			
				<path id="connector14pad_00000160871204664627280140000005696119924213504956_" fill="#DEB554" stroke="#DEB554" stroke-width="0.25" stroke-miterlimit="10" d="
				M4,65.9c-1,0-1.8-0.8-1.8-1.8c0-1,0.8-1.8,1.8-1.8s1.8,0.8,1.8,1.8C5.7,65.1,4.9,65.9,4,65.9z M4,63c-0.6,0-1.1,0.5-1.1,1.1
				c0,0.6,0.5,1.1,1.1,1.1s1.1-0.5,1.1-1.1C5.1,63.5,4.6,63,4,63z"/>
			
				<path id="connector13pad_00000112613425616227993460000005173497050508039090_" fill="#DEB554" stroke="#DEB554" stroke-width="0.25" stroke-miterlimit="10" d="
				M4,73c-1,0-1.8-0.8-1.8-1.8S3,69.5,4,69.5s1.8,0.8,1.8,1.8S4.9,73,4,73z M4,70.1c-0.6,0-1.1,0.5-1.1,1.1c0,0.6,0.5,1.1,1.1,1.1
				s1.1-0.5,1.1-1.1C5.1,70.6,4.6,70.1,4,70.1z"/>
			
				<path id="connector12pad_00000132796789143727645870000007119719363780334223_" fill="#DEB554" stroke="#DEB554" stroke-width="0.25" stroke-miterlimit="10" d="
				M4,80.2c-1,0-1.8-0.8-1.8-1.8c0-1,0.8-1.8,1.8-1.8s1.8,0.8,1.8,1.8C5.7,79.4,4.9,80.2,4,80.2z M4,77.2c-0.6,0-1.1,0.5-1.1,1.1
				c0,0.6,0.5,1.1,1.1,1.1s1.1-0.5,1.1-1.1C5.1,77.8,4.6,77.2,4,77.2z"/>
			
				<path id="connector11pad_00000066493856803701864530000011838721988376611253_" fill="#DEB554" stroke="#DEB554" stroke-width="0.25" stroke-miterlimit="10" d="
				M4,87.3c-1,0-1.8-0.8-1.8-1.8S3,83.8,4,83.8s1.8,0.8,1.8,1.8S4.9,87.3,4,87.3z M4,84.4c-0.6,0-1.1,0.5-1.1,1.1s0.5,1.1,1.1,1.1
				s1.1-0.5,1.1-1.1S4.6,84.4,4,84.4z"/>
			
				<path id="connector10pad_00000030456028970809980310000000513854196515093433_" fill="#DEB554" stroke="#DEB554" stroke-width="0.25" stroke-miterlimit="10" d="
				M4,94.5c-1,0-1.8-0.8-1.8-1.8S3,90.9,4,90.9s1.8,0.8,1.8,1.8S4.9,94.5,4,94.5z M4,91.6c-0.6,0-1.1,0.5-1.1,1.1s0.5,1.1,1.1,1.1
				s1.1-0.5,1.1-1.1S4.6,91.6,4,91.6z"/>
			
				<path id="connector9pad_00000026134281464783467710000010519125175600327569_" fill="#DEB554" stroke="#DEB554" stroke-width="0.25" stroke-miterlimit="10" d="
				M4,101.7c-1,0-1.8-0.8-1.8-1.8S3,98.1,4,98.1s1.8,0.8,1.8,1.8S4.9,101.7,4,101.7z M4,98.7c-0.6,0-1.1,0.5-1.1,1.1S3.3,101,4,101
				s1.1-0.5,1.1-1.1S4.6,98.7,4,98.7z"/>
			
				<path id="connector8pad_00000010298239445564466580000009359039416303316372_" fill="#DEB554" stroke="#DEB554" stroke-width="0.25" stroke-miterlimit="10" d="
				M4,108.7c-1,0-1.8-0.8-1.8-1.8c0-1,0.8-1.8,1.8-1.8s1.8,0.8,1.8,1.8C5.7,107.9,4.9,108.7,4,108.7z M4,105.8
				c-0.6,0-1.1,0.5-1.1,1.1c0,0.6,0.5,1.1,1.1,1.1s1.1-0.5,1.1-1.1C5.1,106.3,4.6,105.8,4,105.8z"/>
			
				<path id="connector7pad_00000166667830443391009180000002682844759991123619_" fill="#DEB554" stroke="#DEB554" stroke-width="0.25" stroke-miterlimit="10" d="
				M4,115.8c-1,0-1.8-0.8-1.8-1.8c0-1,0.8-1.8,1.8-1.8s1.8,0.8,1.8,1.8C5.7,115,4.9,115.8,4,115.8z M4,112.8c-0.6,0-1.1,0.5-1.1,1.1
				c0,0.6,0.5,1.1,1.1,1.1s1.1-0.5,1.1-1.1C5.1,113.3,4.6,112.8,4,112.8z"/>
			
				<path id="connector6pad_00000032611790752037848190000006329524159374725818_" fill="#DEB554" stroke="#DEB554" stroke-width="0.25" stroke-miterlimit="10" d="
				M4,122.9c-1,0-1.8-0.8-1.8-1.8c0-1,0.8-1.8,1.8-1.8s1.8,0.8,1.8,1.8C5.7,122.1,4.9,122.9,4,122.9z M4,120c-0.6,0-1.1,0.5-1.1,1.1
				c0,0.6,0.5,1.1,1.1,1.1s1.1-0.5,1.1-1.1C5.1,120.5,4.6,120,4,120z"/>
			
				<path id="connector5pad_00000082340488103163871220000008507025866444343485_" fill="#DEB554" stroke="#DEB554" stroke-width="0.25" stroke-miterlimit="10" d="
				M4,130c-1,0-1.8-0.8-1.8-1.8s0.8-1.8,1.8-1.8s1.8,0.8,1.8,1.8S4.9,130,4,130z M4,127.1c-0.6,0-1.1,0.5-1.1,1.1s0.5,1.1,1.1,1.1
				s1.1-0.5,1.1-1.1S4.6,127.1,4,127.1z"/>
			
				<path id="connector4pad_00000078755695236851724110000003714164810519627407_" fill="#DEB554" stroke="#DEB554" stroke-width="0.25" stroke-miterlimit="10" d="
				M4,137.1c-1,0-1.8-0.8-1.8-1.8s0.8-1.8,1.8-1.8s1.8,0.8,1.8,1.8S4.9,137.1,4,137.1z M4,134.2c-0.6,0-1.1,0.5-1.1,1.1
				s0.5,1.1,1.1,1.1s1.1-0.5,1.1-1.1S4.6,134.2,4,134.2z"/>
			
				<path id="connector3pad_00000167368193276005576780000004314383529416450751_" fill="#DEB554" stroke="#DEB554" stroke-width="0.25" stroke-miterlimit="10" d="
				M4,144.3c-1,0-1.8-0.8-1.8-1.8s0.8-1.8,1.8-1.8s1.8,0.8,1.8,1.8S4.9,144.3,4,144.3z M4,141.4c-0.6,0-1.1,0.5-1.1,1.1
				s0.5,1.1,1.1,1.1s1.1-0.5,1.1-1.1S4.6,141.4,4,141.4z"/>
			
				<path id="connector2pad_00000047033915766150703190000014792080460800639368_" fill="#DEB554" stroke="#DEB554" stroke-width="0.25" stroke-miterlimit="10" d="
				M4,151.5c-1,0-1.8-0.8-1.8-1.8s0.8-1.8,1.8-1.8s1.8,0.8,1.8,1.8S4.9,151.5,4,151.5z M4,148.6c-0.6,0-1.1,0.5-1.1,1.1
				c0,0.6,0.5,1.1,1.1,1.1s1.1-0.5,1.1-1.1C5.1,149.1,4.6,148.6,4,148.6z"/>
			
				<path id="connector1pad_00000055685302431901939730000004644389726531458693_" fill="#DEB554" stroke="#DEB554" stroke-width="0.25" stroke-miterlimit="10" d="
				M4,158.7c-1,0-1.8-0.8-1.8-1.8s0.8-1.8,1.8-1.8s1.8,0.8,1.8,1.8S4.9,158.7,4,158.7z M4,155.8c-0.6,0-1.1,0.5-1.1,1.1
				S3.3,158,4,158s1.1-0.5,1.1-1.1S4.6,155.8,4,155.8z"/>
		</g>
	</g>
</g>
</svg>
